# xmcd
#
# Track frame offsets: 
#        150
#        10021
#        24977
#        43891
#        66996
#        90400
#        104026
#        117157
#        140108
#        168348
#        189001
#        205081
#        214075
#        222799
#        247071
#        265354
#        283873
#
# Disc length: 4295 seconds
#
# Revision: 1
# Processed by: cddbd v1.5.2PL0 Copyright (c) Steve Scherf et al.
# Submitted via: ExactAudioCopyFreeDBPlugin 1.0
#
DISCID=fd10c511
DTITLE=Eddie Gonzalez - Con Ustedes
DYEAR=1999
DGENRE=Tejano
TTITLE0=Intro
TTITLE1=Botoncito De Cariño
TTITLE2=Ojitos Castaños
TTITLE3=El Gancho
TTITLE4=Necesito
TTITLE5=Que Felicidad
TTITLE6=Mujer Sin Alma
TTITLE7=El Disgusto
TTITLE8=Porque
TTITLE9=Vivo Enamorado De Ti
TTITLE10=Baila Esta Cumbia
TTITLE11=Solo Tuyo
TTITLE12=Ay Cariñito
TTITLE13=Mi Charchina
TTITLE14=Lo Vi
TTITLE15=La Nueva Zenaida
TTITLE16=4 Caminos
EXTD=
EXTT0=
EXTT1=
EXTT2=
EXTT3=
EXTT4=
EXTT5=
EXTT6=
EXTT7=
EXTT8=
EXTT9=
EXTT10=
EXTT11=
EXTT12=
EXTT13=
EXTT14=
EXTT15=
EXTT16=
PLAYORDER=
